<svg preserveAspectRatio="none" width="100%" height="100%" overflow="visible" style="display: block;" viewBox="0 0 188.391 207.938" fill="none" xmlns="http://www.w3.org/2000/svg">
<g id="&#60;Group&#62;">
<path id="&#60;Path&#62;" d="M188.391 74.8047C188.364 147.418 186.322 161.629 168.076 177.909C160.928 184.275 147.788 197.519 109.899 204.128C98.5054 206.089 84.9084 207.486 68.5435 207.889C61.8793 208.05 55.7526 207.808 50.1633 207.217C45.4607 206.707 41.1344 205.928 37.1574 204.934C-4.52055 194.511 -7.63767 158.808 10.6082 128.774C15.4182 120.85 20.9269 113.516 26.7312 106.719C35.6526 96.1885 45.2189 86.8398 53.8716 78.109C61.8794 70.0767 69.0809 62.5548 74.3478 55.1403C76.5513 52.0241 78.4054 48.9079 79.8296 45.7917C80.17 45.0574 80.5104 44.3231 80.8508 43.5888C81.9794 41.2248 83.1348 38.9682 84.2903 36.7922C86.4938 32.7089 88.7241 29.0017 90.8739 25.6706C92.5668 23.0111 94.2328 20.5933 95.7914 18.4442C101.112 11.0835 105.062 6.97327 105.062 6.97327C105.062 6.97327 105.546 6.7315 106.459 6.3554C106.943 6.14049 107.561 5.89871 108.26 5.63007C108.546 5.52261 108.851 5.41516 109.174 5.3077C109.496 5.18233 109.827 5.05696 110.168 4.9316C110.49 4.82414 110.822 4.70773 111.162 4.58237C111.574 4.43909 111.995 4.30477 112.425 4.17941C112.694 4.08986 112.962 4.00032 113.231 3.91077C113.374 3.85704 113.527 3.81227 113.688 3.77645C113.76 3.75854 113.822 3.74063 113.876 3.72272C119.304 2.05715 126.721 0.337874 134.782 0.0423708C158.725 -0.817276 188.418 10.976 188.391 74.8047Z" fill="var(--fill-0, #4373CF)"/>
</g>
</svg>
