<svg preserveAspectRatio="none" width="100%" height="100%" overflow="visible" style="display: block;" viewBox="0 0 116.992 92.0884" fill="none" xmlns="http://www.w3.org/2000/svg">
<g id="&#60;Group&#62;">
<path id="&#60;Path&#62;" d="M77.7397 1.26137C77.7397 1.26137 51.2711 7.49381 44.7144 9.58919C38.1846 11.6846 26.8985 15.3649 23.8889 17.0842C22.2766 17.9976 19.8312 19.3677 16.8754 28.9312C13.5433 39.7843 5.93863 70.2749 4.21884 75.0298C3.1171 78.0117 0 89.7512 0 89.7512L13.5433 92.0884C13.5433 92.0884 29.6394 59.6636 30.9562 51.0134C33.1596 36.4531 38.8027 36.3725 41.0868 35.0562C43.344 33.7399 54.3345 36.2114 93.3791 33.0952C97.2755 32.7996 107.944 32.6116 110.711 28.394C115.709 20.7915 120.734 12.1413 112.995 4.5119C105.229 -3.14433 77.7397 1.26137 77.7397 1.26137Z" fill="var(--fill-0, #494F80)"/>
</g>
</svg>
