<svg preserveAspectRatio="none" width="100%" height="100%" overflow="visible" style="display: block;" viewBox="0 0 43.2402 61.2029" fill="none" xmlns="http://www.w3.org/2000/svg">
<g id="&#60;Group&#62;">
<path id="&#60;Path&#62;" d="M42.296 46.2397C41.7586 46.8845 34.557 49.7589 26.4417 52.902C15.3706 57.1733 2.84842 61.2029 2.84842 61.2029L0 55.1048C0 55.1048 13.1134 47.9859 21.9542 42.9892C26.1462 40.6251 29.3707 38.7447 29.8276 38.3149C31.2518 36.9717 31.628 34.7957 30.58 31.0079C29.532 27.22 27.1135 9.78534 26.8448 7.77054C26.5761 5.72888 27.5166 0.30238 32.5954 0.0337401C37.701 -0.234899 40.2806 1.18887 40.2806 1.18887C40.2806 1.18887 41.5436 1.72616 42.511 14.0567C43.4515 26.3873 43.5859 44.7622 42.296 46.2397Z" fill="var(--fill-0, #FFCA55)"/>
</g>
</svg>
