<svg preserveAspectRatio="none" width="100%" height="100%" overflow="visible" style="display: block;" viewBox="0 0 88.5587 99.3576" fill="none" xmlns="http://www.w3.org/2000/svg">
<g id="&#60;Group&#62;">
<path id="&#60;Path&#62;" d="M49.7806 13.5272C49.7806 13.5272 24.145 24.9176 18.717 28.8128C13.2889 32.7081 1.41156 39.8808 1.00849 41.6269C0.605414 43.4 -1.73242 41.6807 2.48643 50.4383C6.70528 59.2228 26.6172 80.311 28.4982 82.6213C30.4599 85.0122 44.2719 99.3576 44.2719 99.3576L54.6713 91.5133C54.6713 91.5133 34.6787 62.1242 31.7766 57.7991C28.9013 53.474 27.5846 52.8292 29.3044 50.9219C31.0242 49.0145 37.8496 49.0414 73.0515 34.4543C76.5717 33.0036 86.3798 29.6456 87.6696 24.9176C90.0075 16.3748 87.9921 5.5755 78.5333 0.820584C69.0744 -3.93434 49.7806 13.5272 49.7806 13.5272Z" fill="var(--fill-0, #34395C)"/>
</g>
</svg>
