<svg preserveAspectRatio="none" width="100%" height="100%" overflow="visible" style="display: block;" viewBox="0 0 72.0931 43.2617" fill="none" xmlns="http://www.w3.org/2000/svg">
<g id="&#60;Group&#62;">
<path id="&#60;Path&#62;" d="M56.0325 6.12742C56.0325 6.12742 54.0708 8.38398 51.3299 13.1389C48.2397 18.5117 45.7138 23.8307 45.042 25.0128C43.6715 27.4574 38.8346 29.9557 36.6849 30.8691C34.7232 31.7288 0.542493 32.4541 0.112547 32.4272C-0.3174 32.3735 0.623082 42.7967 0.623082 42.7967C0.623082 42.7967 47.7829 44.1399 49.852 42.2594C51.8942 40.379 57.8598 33.2869 60.3588 29.7408C62.7504 26.3828 66.4049 20.8757 68.3397 18.5117C70.4894 15.8522 75.0576 6.74529 69.2802 2.23215C61.8905 -3.57047 57.806 3.46789 56.0325 6.12742Z" fill="var(--fill-0, #FFC05C)"/>
</g>
</svg>
