<svg preserveAspectRatio="none" width="100%" height="100%" overflow="visible" style="display: block;" viewBox="0 0 93.9369 227.824" fill="none" xmlns="http://www.w3.org/2000/svg">
<g id="&#60;Group&#62;">
<g id="&#60;Group&#62;_2">
<path id="&#60;Path&#62;" d="M50.4895 186.291L50.9731 186.264C50.9731 186.076 50.0326 168.104 50.3013 146.962C50.5432 127.459 51.8599 101.213 56.8581 86.8677L56.4013 86.7065C51.3763 101.106 50.0596 127.405 49.8177 146.962C49.549 168.104 50.4895 186.103 50.4895 186.291Z" fill="var(--fill-0, #9CB839)"/>
</g>
<g id="&#60;Group&#62;_3">
<path id="&#60;Path&#62;_2" d="M43.3926 186.292C43.4463 185.137 49.385 70.4276 56.8822 35.9075L56.3985 35.8C48.9013 70.3739 42.9626 185.11 42.9089 186.265L43.3926 186.292Z" fill="var(--fill-0, #9CB839)"/>
</g>
<g id="&#60;Group&#62;_4">
<path id="&#60;Path&#62;_3" d="M46.1591 190.107C46.2129 189.086 51.2648 87.9699 47.2877 67.5264L46.804 67.6339C50.7542 87.9968 45.7024 189.086 45.6486 190.08L46.1591 190.107Z" fill="var(--fill-0, #9CB839)"/>
</g>
<g id="&#60;Group&#62;_5">
<path id="&#60;Path&#62;_4" d="M46.4819 187.875H46.9656C46.9656 187.311 46.9118 130.735 42.3437 104.892L41.8599 104.973C46.4281 130.762 46.4819 187.311 46.4819 187.875Z" fill="var(--fill-0, #9CB839)"/>
</g>
<path id="&#60;Path&#62;_5" d="M6.73996 82.7298C6.73996 82.7298 11.7918 48.3171 24.4215 64.6235C33.1548 75.9063 38.8516 91.8098 41.5388 100.567C42.7211 104.409 43.4198 108.385 43.6616 112.388L44.2259 122.059C16.8168 50.5199 6.73996 82.7298 6.73996 82.7298Z" fill="var(--fill-0, #9CB839)"/>
<path id="&#60;Path&#62;_6" d="M0.342526 41.4689C0.342526 41.4689 -4.70935 8.56058 23.9896 23.2283C51.5062 37.305 48.4159 79.5889 48.4159 79.5889C46.7768 72.5237 43.7941 53.692 33.959 41.4689C7.92036 9.12472 0.342526 41.4689 0.342526 41.4689Z" fill="var(--fill-0, #9CB839)"/>
<path id="&#60;Path&#62;_7" d="M28.9354 146.91C45.3002 143.686 46.187 157.709 46.187 157.709V162.84C44.8166 153.975 28.9354 146.91 28.9354 146.91Z" fill="var(--fill-0, #9CB839)"/>
<path id="&#60;Path&#62;_8" d="M69.2955 5.33711C85.311 -6.67108 93.9368 5.33711 93.9368 5.33711C93.9368 5.33711 63.1687 6.81461 51.5064 74.5924C51.5064 74.5924 53.3068 17.3184 69.2955 5.33711Z" fill="var(--fill-0, #9CB839)"/>
<path id="&#60;Path&#62;_9" d="M82.5437 53.7443C82.5437 53.7443 56.9081 87.0018 51.7219 114.161L52.2862 107.795C52.2862 107.795 53.3073 59.5737 82.5437 53.7443Z" fill="var(--fill-0, #9CB839)"/>
<path id="&#60;Path&#62;_10" d="M51.7222 114.162L50.8623 124.074C50.7548 120.905 51.0772 117.573 51.7222 114.162Z" fill="var(--fill-0, #9CB839)"/>
<path id="&#60;Path&#62;_11" d="M71.6089 126.17C71.6089 126.17 51.3746 147.205 50.0041 151.638C50.0041 151.638 58.1194 127.433 71.6089 126.17Z" fill="var(--fill-0, #9CB839)"/>
<path id="&#60;Path&#62;_12" d="M30.1958 227.824L22.8599 183.632H71.0676L63.7585 227.824H30.1958Z" fill="var(--fill-0, #B4BC5C)"/>
<path id="&#60;Path&#62;_13" d="M18.3488 183.633H75.5854V171.759H18.3488V183.633Z" fill="var(--fill-0, #B4BC5C)"/>
<path id="&#60;Path&#62;_14" d="M22.8599 183.632H71.0676L63.7585 227.824H55.5089C55.5089 227.824 63.5704 193.518 24.4453 193.169L22.8599 183.632Z" fill="var(--fill-0, #47665C)"/>
</g>
</svg>
