<svg preserveAspectRatio="none" width="100%" height="100%" overflow="visible" style="display: block;" viewBox="0 0 61.8953 73.2819" fill="none" xmlns="http://www.w3.org/2000/svg">
<g id="&#60;Group&#62;">
<path id="&#60;Path&#62;" d="M52.6416 72.8282C52.9372 73.849 0 72.8282 0 72.8282C0 72.8282 14.6451 62.1901 15.6124 59.3425C16.5529 56.4949 11.8773 39.4094 11.2592 33.8754C10.7755 29.416 9.53944 9.53669 12.4953 6.50106C15.5587 3.33112 26.5761 0 26.5761 0L42.6722 0.590994C42.6722 0.590994 45.3056 1.15515 47.2135 2.0148C49.1214 2.90131 59.9776 6.76972 61.7242 12.1962C63.4978 17.5959 50.895 35.0306 50.895 35.0306C50.895 35.0306 50.8681 35.8096 50.8412 37.0991C50.7875 38.8184 50.7069 41.4242 50.6531 44.2449C50.5725 47.8984 50.4919 51.9011 50.4919 54.8562C50.4919 61.7602 52.3729 71.8342 52.6416 72.8282Z" fill="var(--fill-0, #FFCA55)"/>
</g>
</svg>
