<svg preserveAspectRatio="none" width="100%" height="100%" overflow="visible" style="display: block;" viewBox="0 0 97.2003 91.9603" fill="none" xmlns="http://www.w3.org/2000/svg">
<g id="&#60;Group&#62;">
<path id="&#60;Path&#62;" d="M89.8906 2.74011C89.8906 2.74011 97.0922 13.3245 97.1996 20.5241C97.3071 27.7505 84.4087 51.928 82.474 55.3666C76.616 65.763 60.5467 88.1943 60.5467 88.1943C60.5467 88.1943 57.7789 88.1138 49.1531 84.7558C49.1531 84.7558 59.8211 55.1517 61.1916 52.0623C66.9153 39.0333 70.1399 29.7921 68.2051 27.5624C66.2703 25.3058 61.0035 23.0761 59.4718 21.7598C57.967 20.4435 31.3909 26.7833 28.6231 27.4818C21.3947 29.3623 24.6999 41.9078 26.2853 47.5223C28.9456 56.9247 31.2834 90.8807 31.2834 90.8807C31.2834 90.8807 26.1509 93.0567 17.552 91.23C17.552 91.23 0.676603 29.8996 0.112298 23.8015C-0.425136 17.7033 -0.693876 7.65623 40.9303 0L89.8906 2.74011Z" fill="var(--fill-0, #E8E8E8)"/>
</g>
</svg>
