<svg preserveAspectRatio="none" width="100%" height="100%" overflow="visible" style="display: block;" viewBox="0 0 32 32" fill="none" xmlns="http://www.w3.org/2000/svg">
<g id="newspaper 1">
<path id="Vector" d="M2.66667 27.1111V13.7778C2.66667 11.3233 4.65667 9.33333 7.11111 9.33333V27.1111C7.11111 28.3389 6.11667 29.3333 4.88889 29.3333C3.66111 29.3333 2.66667 28.3389 2.66667 27.1111ZM29.3333 8.22222V23.7778C29.3333 26.8456 26.8456 29.3333 23.7778 29.3333H8.71556C9.09889 28.6767 9.33333 27.9244 9.33333 27.1111V8.22222C9.33333 5.15444 11.8211 2.66667 14.8889 2.66667H23.7778C26.8456 2.66667 29.3333 5.15444 29.3333 8.22222ZM13.7778 11.5556H16C16.6133 11.5556 17.1111 11.0578 17.1111 10.4444V8.22222C17.1111 7.60889 16.6133 7.11111 16 7.11111H13.7778C13.1644 7.11111 12.6667 7.60889 12.6667 8.22222V10.4444C12.6667 11.0578 13.1644 11.5556 13.7778 11.5556ZM24.8889 22.6667H13.7778C13.1644 22.6667 12.6667 23.1644 12.6667 23.7778C12.6667 24.3911 13.1644 24.8889 13.7778 24.8889H24.8889C25.5022 24.8889 26 24.3911 26 23.7778C26 23.1644 25.5022 22.6667 24.8889 22.6667ZM24.8889 18.2222H13.7778C13.1644 18.2222 12.6667 18.72 12.6667 19.3333C12.6667 19.9467 13.1644 20.4444 13.7778 20.4444H24.8889C25.5022 20.4444 26 19.9467 26 19.3333C26 18.72 25.5022 18.2222 24.8889 18.2222ZM24.8889 13.7778H13.7778C13.1644 13.7778 12.6667 14.2756 12.6667 14.8889C12.6667 15.5022 13.1644 16 13.7778 16H24.8889C25.5022 16 26 15.5022 26 14.8889C26 14.2756 25.5022 13.7778 24.8889 13.7778ZM24.8889 9.33333H20.4444C19.8311 9.33333 19.3333 9.83111 19.3333 10.4444C19.3333 11.0578 19.8311 11.5556 20.4444 11.5556H24.8889C25.5022 11.5556 26 11.0578 26 10.4444C26 9.83111 25.5022 9.33333 24.8889 9.33333Z" fill="var(--fill-0, #0A0A0A)"/>
</g>
</svg>
