<svg preserveAspectRatio="none" width="100%" height="100%" overflow="visible" style="display: block;" viewBox="0 0 11.25 11.25" fill="none" xmlns="http://www.w3.org/2000/svg">
<g id="Union">
<path fill-rule="evenodd" clip-rule="evenodd" d="M10.5033 0.126594C10.6719 -0.042198 10.9475 -0.042198 11.1161 0.126594C11.2905 0.295386 11.2905 0.565454 11.1161 0.734246L0.736517 11.1206C0.652175 11.205 0.545342 11.25 0.432887 11.25C0.320432 11.25 0.213599 11.205 0.129258 11.1262C-0.0394253 10.9574 -0.0394253 10.6817 0.129258 10.5129L1.7821 8.85813C1.28404 8.40098 0.824311 7.85125 0.421708 7.22149C-0.140569 6.33814 -0.140569 4.90341 0.421708 4.02006C1.07395 2.99605 1.87238 2.19148 2.76078 1.64009C3.64918 1.09996 4.62191 0.801756 5.62277 0.801756C6.73949 0.801756 7.825 1.16771 8.78792 1.84397L10.5033 0.126594ZM6.89745 3.7367C6.53457 3.4904 6.09614 3.35052 5.62277 3.35052C4.36327 3.35052 3.35117 4.3689 3.35117 5.62359C3.35117 6.0971 3.49403 6.53566 3.73921 6.8987L4.22508 6.41224C4.09239 6.17777 4.0146 5.90776 4.0146 5.6236C4.0146 4.74025 4.73431 4.01445 5.62271 4.01445C5.90638 4.01445 6.17594 4.09212 6.41009 4.22464L6.89745 3.7367Z" fill="var(--fill-0, #333333)"/>
<path d="M10.835 4.03694C10.672 3.77812 10.4977 3.53619 10.3177 3.31113C10.1097 3.04669 9.71611 3.02418 9.47996 3.26049L7.79313 4.94842C7.91683 5.31976 7.93932 5.74736 7.82686 6.19185C7.63007 6.98517 6.98907 7.62658 6.19626 7.82351C5.75206 7.93604 5.32473 7.91353 4.95363 7.78975L3.57043 9.17385C3.28929 9.45517 3.37925 9.95029 3.75598 10.0966C4.35762 10.3273 4.98174 10.4454 5.62274 10.4454C6.62359 10.4454 7.59633 10.1528 8.48473 9.60708C9.38999 9.04444 10.2053 8.21736 10.8632 7.16522C11.3973 6.31563 11.3692 4.88652 10.835 4.03694Z" fill="var(--fill-0, #333333)"/>
<path d="M7.23092 5.6236C7.23092 6.50695 6.51121 7.23275 5.62281 7.23275C5.58908 7.23275 5.56096 7.23275 5.52722 7.2215L7.21968 5.52795C7.23092 5.56171 7.23092 5.58984 7.23092 5.6236Z" fill="var(--fill-0, #333333)"/>
</g>
</svg>
