<svg xmlns="http://www.w3.org/2000/svg" viewBox="0 0 490 248" width="490" height="248">
<svg x="0.23" y="15.67" width="188.33" height="208.04" viewBox="0 0 188.391 207.938" preserveAspectRatio="none" overflow="visible"><g id="&#60;Group&#62;">
<path id="&#60;Path&#62;" d="M188.391 74.8047C188.364 147.418 186.322 161.629 168.076 177.909C160.928 184.275 147.788 197.519 109.899 204.128C98.5054 206.089 84.9084 207.486 68.5435 207.889C61.8793 208.05 55.7526 207.808 50.1633 207.217C45.4607 206.707 41.1344 205.928 37.1574 204.934C-4.52055 194.511 -7.63767 158.808 10.6082 128.774C15.4182 120.85 20.9269 113.516 26.7312 106.719C35.6526 96.1885 45.2189 86.8398 53.8716 78.109C61.8794 70.0767 69.0809 62.5548 74.3478 55.1403C76.5513 52.0241 78.4054 48.9079 79.8296 45.7917C80.17 45.0574 80.5104 44.3231 80.8508 43.5888C81.9794 41.2248 83.1348 38.9682 84.2903 36.7922C86.4938 32.7089 88.7241 29.0017 90.8739 25.6706C92.5668 23.0111 94.2328 20.5933 95.7914 18.4442C101.112 11.0835 105.062 6.97327 105.062 6.97327C105.062 6.97327 105.546 6.7315 106.459 6.3554C106.943 6.14049 107.561 5.89871 108.26 5.63007C108.546 5.52261 108.851 5.41516 109.174 5.3077C109.496 5.18233 109.827 5.05696 110.168 4.9316C110.49 4.82414 110.822 4.70773 111.162 4.58237C111.574 4.43909 111.995 4.30477 112.425 4.17941C112.694 4.08986 112.962 4.00032 113.231 3.91077C113.374 3.85704 113.527 3.81227 113.688 3.77645C113.76 3.75854 113.822 3.74063 113.876 3.72272C119.304 2.05715 126.721 0.337874 134.782 0.0423708C158.725 -0.817276 188.418 10.976 188.391 74.8047Z" fill="var(--fill-0, #4373CF)"/>
</g></svg>
<svg x="90.25" y="4.15" width="23.54" height="31.59" viewBox="0 0 23.5681 31.5822" preserveAspectRatio="none" overflow="visible"><g id="&#60;Group&#62;">
<path id="&#60;Path&#62;" d="M11.2447 0.218383C11.2447 0.218383 -2.70169 -2.92471 0.469171 14.6443C3.6669 32.2133 7.02587 33.5834 15.4636 29.9568C23.8744 26.3301 23.122 15.0741 23.5519 9.54016C23.9819 4.03305 15.7054 0.40643 11.2447 0.218383Z" fill="var(--fill-0, #EEA886)"/>
</g></svg>
<svg x="97.86" y="21.74" width="15.93" height="25.21" viewBox="0 0 15.9618 25.2217" preserveAspectRatio="none" overflow="visible"><g id="&#60;Group&#62;">
<path id="&#60;Path&#62;" d="M0 22.137C0 22.137 6.18049 28.6649 15.9618 22.728C15.9618 22.728 13.7583 8.51696 14.9138 1.61293C16.0693 -5.31798 2.1766 12.3317 2.1766 12.3317C2.33783 12.4122 2.47221 13.0838 2.49908 14.0241C2.52595 14.8031 2.47221 15.7971 2.36472 16.8179C2.06913 19.1282 1.34358 21.546 0 22.137Z" fill="var(--fill-0, #EEA886)"/>
</g></svg>
<svg x="89.38" y="-0.05" width="25.45" height="22.72" viewBox="0 0 25.401 22.6882" preserveAspectRatio="none" overflow="visible"><g id="&#60;Group&#62;">
<path id="&#60;Path&#62;" d="M23.6581 22.6882C23.6581 22.6882 23.3087 17.1542 21.2933 16.9662C19.278 16.805 18.9555 19.0347 18.9555 19.0347L16.9133 19.4108C16.9133 19.4108 17.5582 14.5753 15.5428 13.7156C13.5275 12.856 2.45631 16.3752 0.844006 14.9514C-0.795166 13.5276 -0.0158679 3.69536 2.91314 2.35216C5.84216 1.00896 13.9305 -1.9998 19.8692 2.00293C19.8692 2.00293 24.4911 1.46564 25.1629 5.19973C25.8615 8.93382 24.921 19.8943 23.6581 22.6882Z" fill="var(--fill-0, #3A3F47)"/>
</g></svg>
<svg x="100.11" y="29.20" width="10.91" height="9.34" viewBox="0 0 10.8293 9.26807" preserveAspectRatio="none" overflow="visible"><g id="&#60;Group&#62;">
<path id="&#60;Path&#62;" d="M0 9.26806C10.0769 6.17871 10.8293 0.107456 10.8293 0C7.52405 5.72202 0.134358 6.47421 0.134358 6.47421C0.16123 7.25326 0.107487 8.24723 0 9.26806Z" fill="var(--fill-0, #A77860)"/>
</g></svg>
<svg x="92.67" y="38.38" width="25.27" height="16.80" viewBox="0 0 25.1553 16.851" preserveAspectRatio="none" overflow="visible"><g id="&#60;Group&#62;">
<path id="&#60;Path&#62;" d="M25.1553 3.05336C25.1553 3.05336 17.7655 17.7479 5.86139 16.8077C-6.06963 15.8675 3.81915 1.09228 4.35659 0.957958C4.94776 0.796775 16.5832 -2.10452 25.1553 3.05336Z" fill="var(--fill-0, #EEA886)"/>
</g></svg>
<svg x="108.25" y="15.36" width="3.64" height="7.47" viewBox="0 0 3.65639 7.56957" preserveAspectRatio="none" overflow="visible"><g id="&#60;Group&#62;">
<path id="&#60;Path&#62;" d="M0.139082 1.33608C0.300312 -0.195165 3.36368 -0.759312 3.6324 1.55099C3.87424 3.88815 2.23507 7.94462 1.07959 7.54166C-0.102763 7.16557 -0.129635 3.4852 0.139082 1.33608Z" fill="var(--fill-0, #EEA886)"/>
</g></svg>
<svg x="70.51" y="39.32" width="61.80" height="73.29" viewBox="0 0 61.8953 73.2819" preserveAspectRatio="none" overflow="visible"><g id="&#60;Group&#62;">
<path id="&#60;Path&#62;" d="M52.6416 72.8282C52.9372 73.849 0 72.8282 0 72.8282C0 72.8282 14.6451 62.1901 15.6124 59.3425C16.5529 56.4949 11.8773 39.4094 11.2592 33.8754C10.7755 29.416 9.53944 9.53669 12.4953 6.50106C15.5587 3.33112 26.5761 0 26.5761 0L42.6722 0.590994C42.6722 0.590994 45.3056 1.15515 47.2135 2.0148C49.1214 2.90131 59.9776 6.76972 61.7242 12.1962C63.4978 17.5959 50.895 35.0306 50.895 35.0306C50.895 35.0306 50.8681 35.8096 50.8412 37.0991C50.7875 38.8184 50.7069 41.4242 50.6531 44.2449C50.5725 47.8984 50.4919 51.9011 50.4919 54.8562C50.4919 61.7602 52.3729 71.8342 52.6416 72.8282Z" fill="var(--fill-0, #FFCA55)"/>
</g></svg>
<svg x="91.80" y="50.05" width="43.28" height="61.31" viewBox="0 0 43.2402 61.2029" preserveAspectRatio="none" overflow="visible"><g id="&#60;Group&#62;">
<path id="&#60;Path&#62;" d="M42.296 46.2397C41.7586 46.8845 34.557 49.7589 26.4417 52.902C15.3706 57.1733 2.84842 61.2029 2.84842 61.2029L0 55.1048C0 55.1048 13.1134 47.9859 21.9542 42.9892C26.1462 40.6251 29.3707 38.7447 29.8276 38.3149C31.2518 36.9717 31.628 34.7957 30.58 31.0079C29.532 27.22 27.1135 9.78534 26.8448 7.77054C26.5761 5.72888 27.5166 0.30238 32.5954 0.0337401C37.701 -0.234899 40.2806 1.18887 40.2806 1.18887C40.2806 1.18887 41.5436 1.72616 42.511 14.0567C43.4515 26.3873 43.5859 44.7622 42.296 46.2397Z" fill="var(--fill-0, #FFCA55)"/>
</g></svg>
<svg x="118.29" y="61.57" width="3.12" height="21.94" viewBox="0 0 3.10586 22.0284" preserveAspectRatio="none" overflow="visible"><g id="&#60;Group&#62;">
<path id="&#60;Path&#62;" d="M3.10586 14.8826C3.05211 16.6019 2.97151 19.2077 2.91777 22.0284C-2.05349 9.85907 0.821785 0.161184 0.875529 0C0.338095 3.30427 3.05211 14.7215 3.10586 14.8826Z" fill="var(--fill-0, #C9A043)"/>
</g></svg>
<svg x="91.80" y="93.00" width="26.48" height="18.36" viewBox="0 0 26.4417 18.3481" preserveAspectRatio="none" overflow="visible"><g id="&#60;Group&#62;">
<path id="&#60;Path&#62;" d="M26.4417 9.91281C15.3706 14.1842 2.44535 18.3481 2.44535 18.3481L0 12.1157C0 12.1157 13.1134 4.9967 21.9542 0C21.9542 0 25.1788 1.55812 26.4417 9.91281Z" fill="var(--fill-0, #EEA886)"/>
</g></svg>
<svg x="33.30" y="109.34" width="97.11" height="91.96" viewBox="0 0 97.2003 91.9603" preserveAspectRatio="none" overflow="visible"><g id="&#60;Group&#62;">
<path id="&#60;Path&#62;" d="M89.8906 2.74011C89.8906 2.74011 97.0922 13.3245 97.1996 20.5241C97.3071 27.7505 84.4087 51.928 82.474 55.3666C76.616 65.763 60.5467 88.1943 60.5467 88.1943C60.5467 88.1943 57.7789 88.1138 49.1531 84.7558C49.1531 84.7558 59.8211 55.1517 61.1916 52.0623C66.9153 39.0333 70.1399 29.7921 68.2051 27.5624C66.2703 25.3058 61.0035 23.0761 59.4718 21.7598C57.967 20.4435 31.3909 26.7833 28.6231 27.4818C21.3947 29.3623 24.6999 41.9078 26.2853 47.5223C28.9456 56.9247 31.2834 90.8807 31.2834 90.8807C31.2834 90.8807 26.1509 93.0567 17.552 91.23C17.552 91.23 0.676603 29.8996 0.112298 23.8015C-0.425136 17.7033 -0.693876 7.65623 40.9303 0L89.8906 2.74011Z" fill="var(--fill-0, #E8E8E8)"/>
</g></svg>
<svg x="51.13" y="45.85" width="35.31" height="67.84" viewBox="0 0 35.4437 67.8852" preserveAspectRatio="none" overflow="visible"><g id="&#60;Group&#62;">
<path id="&#60;Path&#62;" d="M35.4437 15.3125C35.4437 15.3125 33.509 26.7297 31.9773 34.2784C31.3324 37.3141 30.7681 39.7587 30.4188 40.5109C29.9888 41.478 26.3611 45.3464 21.9542 49.8864C14.2151 57.8381 3.97702 67.8852 3.97702 67.8852L0 60.2827C0 60.2827 9.08265 49.6446 15.2363 42.5525C18.0847 39.2482 20.315 36.723 20.7181 36.3469C22.0079 35.2187 23.5127 23.8552 25.6087 14.5065C27.7047 5.15788 31.9236 0 31.9236 0L35.4437 15.3125Z" fill="var(--fill-0, #FFCA55)"/>
</g></svg>
<svg x="51.13" y="88.33" width="21.81" height="25.36" viewBox="0 0 21.9544 25.3328" preserveAspectRatio="none" overflow="visible"><g id="&#60;Group&#62;">
<path id="&#60;Path&#62;" d="M21.9542 7.33387C14.2151 15.2856 3.97702 25.3327 3.97702 25.3327L0 17.7302C0 17.7302 9.08265 7.09208 15.2363 0C17.1173 0.913375 20.5837 3.11623 21.9542 7.33387Z" fill="var(--fill-0, #EEA886)"/>
</g></svg>
<svg x="64.45" y="106.85" width="58.68" height="6.85" viewBox="0 0 58.6877 6.76753" preserveAspectRatio="none" overflow="visible"><g id="&#60;Group&#62;">
<path id="&#60;Path&#62;" d="M0 4.54002C0 4.54002 36.5455 9.02628 58.6877 5.26533L16.3917 0C16.3917 0 16.123 1.07456 0 4.54002Z" fill="var(--fill-0, #FFCA55)"/>
</g></svg>
<svg x="89.03" y="105.14" width="5.19" height="7.00" viewBox="0 0 5.15938 7.01149" preserveAspectRatio="none" overflow="visible"><g id="&#60;Group&#62;">
<path id="&#60;Path&#62;" d="M2.71403 0L0 1.37006C0 1.37006 0.618055 5.69515 2.12287 7.01149L5.15938 6.23242C5.15938 6.23242 4.54131 1.47752 2.71403 0Z" fill="var(--fill-0, #EEA886)"/>
</g></svg>
<svg x="77.61" y="196.16" width="19.21" height="24.90" viewBox="0 0 19.1762 24.8493" preserveAspectRatio="none" overflow="visible"><g id="&#60;Group&#62;">
<path id="&#60;Path&#62;" d="M14.0792 3.68035C14.0792 3.68035 14.6704 8.54275 15.4766 10.6919C16.2558 12.841 20.5553 17.7839 18.728 22.5657C16.7664 27.7236 8.16747 22.7538 4.67415 21.1688C1.18083 19.5838 1.96011 16.7363 1.58391 13.2439C1.23458 9.72477 -0.485216 9.64415 0.132833 7.17266C0.777753 4.70118 4.59352 0 4.59352 0L14.0792 3.68035Z" fill="var(--fill-0, #213A70)"/>
</g></svg>
<svg x="189.78" y="6.95" width="93.99" height="227.80" viewBox="0 0 93.9369 227.824" preserveAspectRatio="none" overflow="visible"><g id="&#60;Group&#62;">
<g id="&#60;Group&#62;_2">
<path id="&#60;Path&#62;" d="M50.4895 186.291L50.9731 186.264C50.9731 186.076 50.0326 168.104 50.3013 146.962C50.5432 127.459 51.8599 101.213 56.8581 86.8677L56.4013 86.7065C51.3763 101.106 50.0596 127.405 49.8177 146.962C49.549 168.104 50.4895 186.103 50.4895 186.291Z" fill="var(--fill-0, #9CB839)"/>
</g>
<g id="&#60;Group&#62;_3">
<path id="&#60;Path&#62;_2" d="M43.3926 186.292C43.4463 185.137 49.385 70.4276 56.8822 35.9075L56.3985 35.8C48.9013 70.3739 42.9626 185.11 42.9089 186.265L43.3926 186.292Z" fill="var(--fill-0, #9CB839)"/>
</g>
<g id="&#60;Group&#62;_4">
<path id="&#60;Path&#62;_3" d="M46.1591 190.107C46.2129 189.086 51.2648 87.9699 47.2877 67.5264L46.804 67.6339C50.7542 87.9968 45.7024 189.086 45.6486 190.08L46.1591 190.107Z" fill="var(--fill-0, #9CB839)"/>
</g>
<g id="&#60;Group&#62;_5">
<path id="&#60;Path&#62;_4" d="M46.4819 187.875H46.9656C46.9656 187.311 46.9118 130.735 42.3437 104.892L41.8599 104.973C46.4281 130.762 46.4819 187.311 46.4819 187.875Z" fill="var(--fill-0, #9CB839)"/>
</g>
<path id="&#60;Path&#62;_5" d="M6.73996 82.7298C6.73996 82.7298 11.7918 48.3171 24.4215 64.6235C33.1548 75.9063 38.8516 91.8098 41.5388 100.567C42.7211 104.409 43.4198 108.385 43.6616 112.388L44.2259 122.059C16.8168 50.5199 6.73996 82.7298 6.73996 82.7298Z" fill="var(--fill-0, #9CB839)"/>
<path id="&#60;Path&#62;_6" d="M0.342526 41.4689C0.342526 41.4689 -4.70935 8.56058 23.9896 23.2283C51.5062 37.305 48.4159 79.5889 48.4159 79.5889C46.7768 72.5237 43.7941 53.692 33.959 41.4689C7.92036 9.12472 0.342526 41.4689 0.342526 41.4689Z" fill="var(--fill-0, #9CB839)"/>
<path id="&#60;Path&#62;_7" d="M28.9354 146.91C45.3002 143.686 46.187 157.709 46.187 157.709V162.84C44.8166 153.975 28.9354 146.91 28.9354 146.91Z" fill="var(--fill-0, #9CB839)"/>
<path id="&#60;Path&#62;_8" d="M69.2955 5.33711C85.311 -6.67108 93.9368 5.33711 93.9368 5.33711C93.9368 5.33711 63.1687 6.81461 51.5064 74.5924C51.5064 74.5924 53.3068 17.3184 69.2955 5.33711Z" fill="var(--fill-0, #9CB839)"/>
<path id="&#60;Path&#62;_9" d="M82.5437 53.7443C82.5437 53.7443 56.9081 87.0018 51.7219 114.161L52.2862 107.795C52.2862 107.795 53.3073 59.5737 82.5437 53.7443Z" fill="var(--fill-0, #9CB839)"/>
<path id="&#60;Path&#62;_10" d="M51.7222 114.162L50.8623 124.074C50.7548 120.905 51.0772 117.573 51.7222 114.162Z" fill="var(--fill-0, #9CB839)"/>
<path id="&#60;Path&#62;_11" d="M71.6089 126.17C71.6089 126.17 51.3746 147.205 50.0041 151.638C50.0041 151.638 58.1194 127.433 71.6089 126.17Z" fill="var(--fill-0, #9CB839)"/>
<path id="&#60;Path&#62;_12" d="M30.1958 227.824L22.8599 183.632H71.0676L63.7585 227.824H30.1958Z" fill="var(--fill-0, #B4BC5C)"/>
<path id="&#60;Path&#62;_13" d="M18.3488 183.633H75.5854V171.759H18.3488V183.633Z" fill="var(--fill-0, #B4BC5C)"/>
<path id="&#60;Path&#62;_14" d="M22.8599 183.632H71.0676L63.7585 227.824H55.5089C55.5089 227.824 63.5704 193.518 24.4453 193.169L22.8599 183.632Z" fill="var(--fill-0, #47665C)"/>
</g></svg>
<svg x="302.12" y="97.51" width="55.39" height="5.60" viewBox="0 0 55.3825 5.48025" preserveAspectRatio="none" overflow="visible"><path id="&#60;Path&#62;" d="M0 5.0504L55.3288 5.48025L55.3825 0.402959L0.0268323 0L0 5.0504Z" fill="var(--fill-0, #323657)"/></svg>
<svg x="287.23" y="50.83" width="20.08" height="51.66" viewBox="0 0 19.9657 51.6325" preserveAspectRatio="none" overflow="visible"><path id="&#60;Path&#62;" d="M0 1.39691L15.3707 51.6325L19.9657 50.2356L4.59508 0L0 1.39691Z" fill="var(--fill-0, #323657)"/></svg>
<svg x="391.09" y="22.20" width="31.85" height="34.39" viewBox="0 0 31.7976 34.303" preserveAspectRatio="none" overflow="visible"><g id="&#60;Group&#62;">
<path id="&#60;Path&#62;" d="M7.47166 2.10872C7.47166 2.10872 2.90349 10.0067 3.92461 12.1558C4.97261 14.305 -0.858597 19.5434 0.108783 20.6449C1.07616 21.7463 3.03781 23.0895 3.01094 23.4119C2.95719 23.7342 4.70388 34.05 6.93423 34.2649C9.19145 34.5066 24.562 33.7007 25.8519 28.8921C27.1148 24.0834 30.8769 13.5528 31.7368 11.5917C32.6236 9.65751 23.7828 -5.46691 7.47166 2.10872Z" fill="var(--fill-0, #EEA886)"/>
</g></svg>
<svg x="397.15" y="17.69" width="29.43" height="31.74" viewBox="0 0 29.4317 31.7469" preserveAspectRatio="none" overflow="visible"><g id="&#60;Group&#62;">
<path id="&#60;Path&#62;" d="M20.3956 5.11044C21.6855 6.05068 22.7066 7.07152 23.5396 8.09235C24.5607 8.54904 30.4994 11.5041 29.2633 14.7009C27.5972 18.9991 20.8793 30.4969 20.315 31.7058C20.2344 31.867 20.2344 31.5446 20.2881 30.8999C19.885 26.8434 14.8869 22.3034 14.8869 22.3034L12.1998 21.0945C13.5971 18.5156 13.0597 16.0978 13.0597 16.0978C10.0232 12.8473 0 9.3818 0 9.3818C1.4242 -4.93669 13.6777 0.113745 20.3956 5.11044Z" fill="var(--fill-0, #403429)"/>
</g></svg>
<svg x="410.48" y="36.05" width="6.40" height="7.62" viewBox="0 0 6.43862 7.62155" preserveAspectRatio="none" overflow="visible"><g id="&#60;Group&#62;">
<path id="&#60;Path&#62;" d="M2.46265 0.608954C3.18819 -0.492468 6.92338 -0.30442 6.38594 2.89239C5.82164 6.0892 1.25348 8.64127 0.232354 7.21748C-0.761898 5.79369 1.71024 1.73724 2.46265 0.608954Z" fill="var(--fill-0, #EEA886)"/>
</g></svg>
<svg x="401.65" y="55.97" width="53.49" height="85.74" viewBox="0 0 53.4226 85.7497" preserveAspectRatio="none" overflow="visible"><path id="&#60;Path&#62;" d="M1.56028 38.899C2.44705 40.3228 3.46816 42.6062 4.5699 45.4001C5.16108 46.9313 5.7523 48.6238 6.37035 50.3699C10.4548 61.8945 14.6468 76.9652 14.6468 76.9652C28.2707 73.661 53.4226 85.7497 53.4226 85.7497C53.2614 81.8007 45.6836 48.6237 41.4916 29.7115C37.3265 10.8262 18.7313 0 18.7313 0C10.1593 4.27137 3.76375 14.5334 3.76375 14.5334C3.76375 14.5334 -2.95416 31.6189 1.56028 38.899Z" fill="var(--fill-0, #FFC05C)"/></svg>
<svg x="404.42" y="54.72" width="7.62" height="4.82" viewBox="0 0 7.65843 4.88923" preserveAspectRatio="none" overflow="visible"><path id="&#60;Path&#62;" d="M0 1.53123C0.376203 2.39088 0.779292 3.57289 1.1555 4.88923C3.3321 3.97585 7.52407 0.107456 7.65843 0C5.91177 0.671599 0 1.53123 0 1.53123Z" fill="var(--fill-0, #A77860)"/></svg>
<svg x="403.56" y="51.61" width="16.96" height="17.27" viewBox="0 0 16.9767 17.3004" preserveAspectRatio="none" overflow="visible"><g id="&#60;Group&#62;">
<path id="&#60;Path&#62;" d="M0.116324 3.4386C0.331297 3.62665 0.573103 4.05646 0.814948 4.67433C1.19115 5.53398 1.59424 6.716 1.97044 8.03233C3.12593 12.0888 4.17391 17.3004 4.17391 17.3004C4.17391 17.3004 18.8459 5.10418 16.7768 4.32512C14.7076 3.54607 13.1759 0 13.1759 0C13.1759 0 -1.44223 2.06854 0.116324 3.4386Z" fill="var(--fill-0, #EEA886)"/>
</g></svg>
<svg x="357.17" y="59.55" width="72.01" height="43.26" viewBox="0 0 72.0931 43.2617" preserveAspectRatio="none" overflow="visible"><g id="&#60;Group&#62;">
<path id="&#60;Path&#62;" d="M56.0325 6.12742C56.0325 6.12742 54.0708 8.38398 51.3299 13.1389C48.2397 18.5117 45.7138 23.8307 45.042 25.0128C43.6715 27.4574 38.8346 29.9557 36.6849 30.8691C34.7232 31.7288 0.542493 32.4541 0.112547 32.4272C-0.3174 32.3735 0.623082 42.7967 0.623082 42.7967C0.623082 42.7967 47.7829 44.1399 49.852 42.2594C51.8942 40.379 57.8598 33.2869 60.3588 29.7408C62.7504 26.3828 66.4049 20.8757 68.3397 18.5117C70.4894 15.8522 75.0576 6.74529 69.2802 2.23215C61.8905 -3.57047 57.806 3.46789 56.0325 6.12742Z" fill="var(--fill-0, #FFC05C)"/>
</g></svg>
<svg x="404.60" y="97.20" width="37.39" height="34.54" viewBox="0 0 37.271 34.4764" preserveAspectRatio="none" overflow="visible"><g id="&#60;Group&#62;">
<path id="&#60;Path&#62;" d="M0 0C0 0 11.9041 22.7538 12.4147 31.2696C12.9253 39.8124 37.271 28.5833 37.271 28.5833L0 0Z" fill="var(--fill-0, #EDDCC5)"/>
</g></svg>
<svg x="416.37" y="126.30" width="25.79" height="6.54" viewBox="0 0 25.829 6.58167" preserveAspectRatio="none" overflow="visible"><g id="&#60;Group&#62;">
<path id="&#60;Path&#62;" d="M0.69869 1.66555L0.429973 3.78781L0 6.58167C0.376203 6.55481 23.7814 5.10415 25.4744 5.53397C27.1673 5.96379 22.2498 0 22.2498 0L0.69869 1.66555Z" fill="var(--fill-0, #323657)"/>
</g></svg>
<svg x="366.17" y="123.96" width="88.45" height="99.27" viewBox="0 0 88.5587 99.3576" preserveAspectRatio="none" overflow="visible"><g id="&#60;Group&#62;">
<path id="&#60;Path&#62;" d="M49.7806 13.5272C49.7806 13.5272 24.145 24.9176 18.717 28.8128C13.2889 32.7081 1.41156 39.8808 1.00849 41.6269C0.605414 43.4 -1.73242 41.6807 2.48643 50.4383C6.70528 59.2228 26.6172 80.311 28.4982 82.6213C30.4599 85.0122 44.2719 99.3576 44.2719 99.3576L54.6713 91.5133C54.6713 91.5133 34.6787 62.1242 31.7766 57.7991C28.9013 53.474 27.5846 52.8292 29.3044 50.9219C31.0242 49.0145 37.8496 49.0414 73.0515 34.4543C76.5717 33.0036 86.3798 29.6456 87.6696 24.9176C90.0075 16.3748 87.9921 5.5755 78.5333 0.820584C69.0744 -3.93434 49.7806 13.5272 49.7806 13.5272Z" fill="var(--fill-0, #34395C)"/>
</g></svg>
<svg x="338.47" y="131.59" width="117.02" height="92.12" viewBox="0 0 116.992 92.0884" preserveAspectRatio="none" overflow="visible"><g id="&#60;Group&#62;">
<path id="&#60;Path&#62;" d="M77.7397 1.26137C77.7397 1.26137 51.2711 7.49381 44.7144 9.58919C38.1846 11.6846 26.8985 15.3649 23.8889 17.0842C22.2766 17.9976 19.8312 19.3677 16.8754 28.9312C13.5433 39.7843 5.93863 70.2749 4.21884 75.0298C3.1171 78.0117 0 89.7512 0 89.7512L13.5433 92.0884C13.5433 92.0884 29.6394 59.6636 30.9562 51.0134C33.1596 36.4531 38.8027 36.3725 41.0868 35.0562C43.344 33.7399 54.3345 36.2114 93.3791 33.0952C97.2755 32.7996 107.944 32.6116 110.711 28.394C115.709 20.7915 120.734 12.1413 112.995 4.5119C105.229 -3.14433 77.7397 1.26137 77.7397 1.26137Z" fill="var(--fill-0, #494F80)"/>
</g></svg>
<svg x="396.81" y="158.82" width="75.64" height="11.67" viewBox="0 0 75.7243 11.5515" preserveAspectRatio="none" overflow="visible"><g id="&#60;Group&#62;">
<path id="&#60;Path&#62;" d="M5.72361 11.5515H70.0275C73.1715 11.5515 75.7243 8.99944 75.7243 5.85635V5.69518C75.7243 2.5521 73.1715 0 70.0275 0H5.72361C2.55276 0 0 2.5521 0 5.69518V5.85635C0 8.99944 2.55276 11.5515 5.72361 11.5515Z" fill="var(--fill-0, #4373CF)"/>
</g></svg>
<svg x="432.12" y="173.13" width="5.37" height="51.97" viewBox="0 0 5.42807 51.8206" preserveAspectRatio="none" overflow="visible"><g id="&#60;Group&#62;">
<path id="&#60;Path&#62;" d="M0 51.8206H5.42807V0H0V51.8206Z" fill="var(--fill-0, #918783)"/>
</g></svg>
<svg x="418.79" y="170.49" width="32.02" height="2.96" viewBox="0 0 31.9773 3.0625" preserveAspectRatio="none" overflow="visible"><g id="&#60;Group&#62;">
<path id="&#60;Path&#62;" d="M0 3.0625H31.9773V0H0V3.0625Z" fill="var(--fill-0, #5E5854)"/>
</g></svg>
<svg x="447.70" y="78.53" width="42.41" height="72.20" viewBox="0 0 42.4841 72.2909" preserveAspectRatio="none" overflow="visible"><g id="&#60;Group&#62;">
<path id="&#60;Path&#62;" d="M9.88879 72.2909H32.5685C38.0503 72.2909 42.4841 67.8583 42.4841 62.405V9.88592C42.4841 4.43253 38.0503 0 32.5685 0H9.88879C4.40697 0 0 4.43253 0 9.88592V62.405C0 67.8583 4.40697 72.2909 9.88879 72.2909Z" fill="var(--fill-0, #4373CF)"/>
</g></svg>
<svg x="197.05" y="109.18" width="4.33" height="125.57" viewBox="0 0 4.32652 125.535" preserveAspectRatio="none" overflow="visible"><g id="&#60;Group&#62;">
<path id="&#60;Path&#62;" d="M0.000221088 125.535H4.32652V4.49944e-05H0.000221088V125.535Z" fill="var(--fill-0, #706865)"/>
</g></svg>
<svg x="172.81" y="101.71" width="189.89" height="7.47" viewBox="0 0 189.795 7.5488" preserveAspectRatio="none" overflow="visible"><g id="&#60;Group&#62;">
<path id="&#60;Path&#62;" d="M189.795 7.5488H0V0H189.795V7.5488Z" fill="var(--fill-0, #B59074)"/>
</g></svg>
<svg x="336.39" y="109.18" width="4.33" height="125.57" viewBox="0 0 4.3265 125.535" preserveAspectRatio="none" overflow="visible"><g id="&#60;Group&#62;">
<path id="&#60;Path&#62;" d="M4.3263 125.535H0V4.49944e-05H4.3263V125.535Z" fill="var(--fill-0, #706865)"/>
</g></svg>
<svg x="329.12" y="90.51" width="30.81" height="7.94" viewBox="0 0 30.8258 7.99634" preserveAspectRatio="none" overflow="visible"><path id="&#60;Path&#62;" d="M30.0196 1.95195C30.0196 1.95195 27.1443 2.54294 25.7739 2.5698C24.4034 2.62353 18.0886 -0.250913 16.0463 0.0177263C14.031 0.286366 0.810119 5.90094 0.218943 6.3039C-0.399106 6.73372 0.487659 7.62024 0.487659 7.62024L30.8258 7.99634L30.0196 1.95195Z" fill="var(--fill-0, #EEA886)"/></svg>
<svg x="411.00" y="215.30" width="10.21" height="9.02" viewBox="0 0 10.1853 9.02628" preserveAspectRatio="none" overflow="visible"><g id="&#60;Group&#62;">
<path id="&#60;Path&#62;" d="M0 4.80862L1.96165 9.02628C1.96165 9.02628 10.1575 5.96378 10.1843 5.85632C10.2381 5.74887 7.92714 0 7.92714 0L0 4.80862Z" fill="var(--fill-0, #515269)"/>
</g></svg>
<svg x="338.47" y="220.13" width="12.12" height="8.40" viewBox="0 0 12.0119 8.49341" preserveAspectRatio="none" overflow="visible"><g id="&#60;Group&#62;">
<path id="&#60;Path&#62;" d="M2.28434 0L0.00024303 6.60853C0.00024303 6.60853 9.00223 8.59646 10.3189 8.489C10.4264 8.489 12.0119 0.993953 12.0119 0.993953L2.28434 0Z" fill="var(--fill-0, #6A6B8A)"/>
</g></svg>
<svg x="316.31" y="222.93" width="33.58" height="18.36" viewBox="0 0 33.6178 18.3167" preserveAspectRatio="none" overflow="visible"><path id="&#60;Path&#62;" d="M33.5689 3.62006C33.5689 3.62006 27.281 1.92762 27.0929 1.63212C26.9048 1.36348 24.5938 -0.194633 23.4114 0.0202791C22.2291 0.208327 22.1216 1.63211 20.9392 1.92761C19.7569 2.22312 10.5668 5.1513 9.27696 5.90349C8.01399 6.65568 1.941 4.45281 0.758649 6.01092C-0.396833 7.59589 -1.55231 11.733 8.014 13.1568C17.5534 14.5805 27.7915 18.8519 30.0756 18.2609C32.3597 17.6968 33.9183 6.17213 33.5689 3.62006Z" fill="var(--fill-0, #C4C6D1)"/></svg>
<svg x="396.46" y="220.13" width="31.85" height="22.72" viewBox="0 0 31.7597 22.8123" preserveAspectRatio="none" overflow="visible"><path id="&#60;Path&#62;" d="M25.3703 0C25.3703 0 19.566 2.49835 19.2435 2.3909C18.9479 2.31031 16.2339 2.49834 15.4546 3.38485C14.6753 4.2445 15.4546 5.39965 14.7022 6.33989C13.9766 7.28013 9.83839 12.7604 8.6023 14.023C7.60805 15.0707 2.1531 16.0378 0.406437 17.8645C-0.910275 19.2346 0.648322 24.7417 9.91905 22.109C18.9479 19.5569 30.1534 15.1244 31.5507 13.2977C32.9212 11.4709 27.1707 1.74616 25.3703 0Z" fill="var(--fill-0, #C4C6D1)"/></svg>
<svg x="433.68" y="220.90" width="48.81" height="21.16" viewBox="0 0 48.7989 21.1959" preserveAspectRatio="none" overflow="visible"><g id="&#60;Group&#62;">
<path id="&#60;Path&#62;" d="M48.7989 18.0257L47.6703 21.1957L0 6.42049L2.28409 0L48.7989 18.0257Z" fill="var(--fill-0, #918783)"/>
</g></svg>
<svg x="386.59" y="220.44" width="48.81" height="21.63" viewBox="0 0 48.7989 21.5986" preserveAspectRatio="none" overflow="visible"><g id="&#60;Group&#62;">
<path id="&#60;Path&#62;" d="M0 18.4287L1.1286 21.5986L48.7989 6.82345L46.7029 0L0 18.4287Z" fill="var(--fill-0, #918783)"/>
</g></svg>
<svg x="420.17" y="220.44" width="15.23" height="25.05" viewBox="0 0 15.2093 24.9566" preserveAspectRatio="none" overflow="visible"><g id="&#60;Group&#62;">
<path id="&#60;Path&#62;" d="M0 21.2494V24.9566L15.2093 6.82345L13.1133 0L0 21.2494Z" fill="var(--fill-0, #918783)"/>
</g></svg>
<svg x="382.27" y="238.80" width="8.83" height="9.02" viewBox="0 0 8.92138 8.91882" preserveAspectRatio="none" overflow="visible"><g id="&#60;Group&#62;">
<path id="&#60;Path&#62;" d="M0 4.45941C0 6.93089 2.0154 8.91882 4.46072 8.91882C6.93292 8.91882 8.92138 6.93089 8.92138 4.45941C8.92138 1.98793 6.93292 0 4.46072 0C2.0154 0 0 1.98793 0 4.45941Z" fill="var(--fill-0, #4373CF)"/>
</g></svg>
<svg x="419.83" y="238.80" width="9.00" height="9.02" viewBox="0 0 8.92138 8.91882" preserveAspectRatio="none" overflow="visible"><g id="&#60;Group&#62;">
<path id="&#60;Path&#62;" d="M0 4.45941C0 6.93089 1.98853 8.91882 4.46072 8.91882C6.93292 8.91882 8.92138 6.93089 8.92138 4.45941C8.92138 1.98793 6.93292 0 4.46072 0C1.98853 0 0 1.98793 0 4.45941Z" fill="var(--fill-0, #4373CF)"/>
</g></svg>
<svg x="478.16" y="238.80" width="8.83" height="9.02" viewBox="0 0 8.89455 8.91882" preserveAspectRatio="none" overflow="visible"><g id="&#60;Group&#62;">
<path id="&#60;Path&#62;" d="M0 4.45941C0 6.93089 1.9885 8.91882 4.43383 8.91882C6.90602 8.91882 8.89455 6.93089 8.89455 4.45941C8.89455 1.98793 6.90602 0 4.43383 0C1.9885 0 0 1.98793 0 4.45941Z" fill="var(--fill-0, #4373CF)"/>
</g></svg>
<svg x="444.24" y="124.59" width="30.12" height="42.95" viewBox="0 0 30.1429 42.9167" preserveAspectRatio="none" overflow="visible"><g id="&#60;Group&#62;">
<path id="&#60;Path&#62;" d="M2.92899 42.9167C10.6143 42.9167 16.8485 40.3378 21.4704 35.2336C31.9235 23.709 30.0425 3.45359 29.9619 2.59395C29.8007 1.00897 28.3765 -0.146171 26.791 0.0150127C25.1787 0.149332 24.0233 1.5731 24.1845 3.18494C24.1845 3.39985 25.8505 21.7748 17.171 31.3384C13.6508 35.2336 8.97511 37.1141 2.92899 37.1141C1.31669 37.1141 0 38.4036 0 40.0154C0 41.6272 1.31669 42.9167 2.92899 42.9167Z" fill="var(--fill-0, #4373CF)"/>
</g></svg>
<svg x="406.15" y="79.46" width="15.93" height="26.76" viewBox="0 0 15.8543 26.8371" preserveAspectRatio="none" overflow="visible"><path id="&#60;Path&#62;" d="M0 21.8673C0.591177 23.3985 1.18241 25.0909 1.80045 26.8371C3.11717 25.2521 5.32059 22.4045 7.38971 19.2346C10.5068 14.4528 15.5587 0.859647 15.8543 0C13.1671 3.73409 3.19773 17.4616 0 21.8673Z" fill="var(--fill-0, #D19E4C)"/></svg>
</svg>