<svg preserveAspectRatio="none" width="100%" height="100%" overflow="visible" style="display: block;" viewBox="0 0 24 24" fill="none" xmlns="http://www.w3.org/2000/svg">
<g id="search 1">
<path id="Vector" d="M21.7558 20.5775L16.7817 15.6033C18.1372 13.9455 18.8037 11.8301 18.6432 9.69464C18.4828 7.55919 17.5077 5.56711 15.9197 4.13044C14.3316 2.69376 12.2522 1.92241 10.1114 1.97594C7.97058 2.02946 5.93225 2.90377 4.41801 4.41801C2.90377 5.93225 2.02946 7.97058 1.97594 10.1114C1.92241 12.2522 2.69376 14.3316 4.13044 15.9197C5.56711 17.5077 7.55919 18.4828 9.69464 18.6432C11.8301 18.8037 13.9455 18.1372 15.6033 16.7817L20.5775 21.7558C20.7347 21.9076 20.9452 21.9916 21.1637 21.9897C21.3822 21.9878 21.5912 21.9002 21.7457 21.7457C21.9002 21.5912 21.9878 21.3822 21.9897 21.1637C21.9916 20.9452 21.9076 20.7347 21.7558 20.5775ZM10.3333 17C9.01479 17 7.72586 16.609 6.62953 15.8765C5.53321 15.1439 4.67872 14.1027 4.17414 12.8846C3.66955 11.6664 3.53753 10.3259 3.79477 9.03273C4.052 7.73953 4.68694 6.55164 5.61929 5.61929C6.55164 4.68694 7.73953 4.052 9.03273 3.79477C10.3259 3.53753 11.6664 3.66955 12.8846 4.17414C14.1027 4.67872 15.1439 5.53321 15.8765 6.62953C16.609 7.72586 17 9.01479 17 10.3333C16.998 12.1008 16.295 13.7954 15.0452 15.0452C13.7954 16.295 12.1008 16.998 10.3333 17Z" fill="var(--fill-0, #0A0A0A)"/>
</g>
</svg>
