<svg preserveAspectRatio="none" width="100%" height="100%" overflow="visible" style="display: block;" viewBox="0 0 32 32" fill="none" xmlns="http://www.w3.org/2000/svg">
<g id="book-04">
<path id="Vector" d="M26.0573 1.66667L26.1601 1.67188C26.6641 1.72336 27.0573 2.14911 27.0573 2.66667C27.0573 3.18423 26.6641 3.60997 26.1601 3.66145L26.0573 3.66667H8.66667C7.39585 3.66667 6.36303 4.68261 6.33464 5.94661C6.33557 5.96433 6.33855 5.98205 6.33855 6V6.10287C6.39244 7.34373 7.41252 8.33333 8.66667 8.33333H23V7H8.66667C8.11439 7 7.66667 6.55228 7.66667 6C7.66667 5.44772 8.11439 5 8.66667 5H24L24.1028 5.00521C24.6068 5.05671 25 5.48244 25 6V8.33333H26.6407C26.6493 8.33311 26.658 8.33203 26.6667 8.33203C27.2189 8.33203 27.6667 8.77975 27.6667 9.33203V29.332C27.6664 29.8841 27.2188 30.332 26.6667 30.332H9.33855C6.57477 30.332 4.33523 28.0893 4.33855 25.3255V6.20183C4.33548 6.13492 4.33333 6.06765 4.33333 6C4.33333 3.60676 6.27344 1.66667 8.66667 1.66667H26.0573ZM11.3333 21C10.7811 21 10.3333 21.4477 10.3333 22C10.3333 22.5523 10.7811 23 11.3333 23H16.6667C17.2189 23 17.6667 22.5523 17.6667 22C17.6667 21.4477 17.2189 21 16.6667 21H11.3333ZM11.3333 15.6667C10.7811 15.6667 10.3333 16.1144 10.3333 16.6667C10.3333 17.2189 10.7811 17.6667 11.3333 17.6667H20.6667C21.2189 17.6667 21.6667 17.2189 21.6667 16.6667C21.6667 16.1144 21.2189 15.6667 20.6667 15.6667H11.3333Z" fill="var(--fill-0, #0A0A0A)"/>
</g>
</svg>
