<svg preserveAspectRatio="none" width="100%" height="100%" overflow="visible" style="display: block;" viewBox="0 0 80 80" fill="none" xmlns="http://www.w3.org/2000/svg">
<g id="Frame 11092">
<g id="Mask group">
<mask id="mask0_2029_192213" style="mask-type:alpha" maskUnits="userSpaceOnUse" x="10" y="11" width="60" height="59">
<path id="Vector 578" d="M69.8797 23.6267C67.6719 50.6091 62.0028 61.7224 41.3564 69.473C40.63 69.7458 39.8104 69.746 39.0839 69.4733C18.3556 61.692 12.7233 50.5216 10.534 23.3066C10.4096 21.7599 11.509 20.3882 13.0399 20.1347C25.486 18.0742 32.0493 16.0944 38.0384 11.7951C39.3379 10.8622 41.1017 10.8621 42.4012 11.795C48.3402 16.0584 54.8438 18.0408 67.0883 20.083C68.7951 20.3676 70.0208 21.9021 69.8797 23.6267Z" fill="var(--fill-0, white)"/>
</mask>
<g mask="url(#mask0_2029_192213)">
<path id="Vector 576 (Stroke)" d="M70.416 20.1912C69.7467 21.2179 69.0933 22.1962 68.3945 23.201C57.1686 42.4399 32.4609 51.4191 10.8848 52.5223C9.65028 52.6365 8.46545 52.7396 7.21973 52.8358C7.17658 48.9497 7.13397 45.0636 7.09082 41.1776C8.2845 41.2465 9.41771 41.3083 10.5957 41.3602C31.4495 42.8364 52.615 38.8222 66.6162 21.7772C67.4275 20.8952 68.1985 20.0333 68.9893 19.119C69.4647 19.4765 69.9406 19.8337 70.416 20.1912Z" fill="url(#paint0_linear_2029_192213)"/>
<path id="Vector 577 (Stroke)" d="M71.2338 25.9373C70.6569 26.9971 70.0921 28.0144 69.492 29.0576C60.1243 48.7143 37.8454 61.0244 16.7236 64.9198C15.5322 65.1919 14.3832 65.4473 13.1735 65.7023C12.6466 62.1382 12.1194 58.5738 11.5925 55.0098C12.7695 54.9117 13.8868 54.814 15.0423 54.7003C35.6947 53.2703 55.5322 45.8472 67.6276 27.8236C68.3421 26.8801 69.0253 25.9573 69.7227 24.9884C70.2264 25.3048 70.7301 25.621 71.2338 25.9373Z" fill="url(#paint1_linear_2029_192213)"/>
<path id="Vector 579 (Stroke)" d="M70.4026 34.5786C69.8933 35.5061 69.4085 36.3763 68.8825 37.2955C60.6687 53.9866 43.5823 67.1773 24.8886 70.7903C23.8461 71.0548 22.8645 71.2951 21.817 71.5391C21.3953 69.3565 20.9734 67.1736 20.5517 64.991C21.574 64.8347 22.5314 64.6828 23.5447 64.5078C41.6738 62.2786 57.3967 52.1617 67.1623 36.2215C67.7502 35.3569 68.298 34.5373 68.8721 33.6601C69.3822 33.9662 69.8925 34.2725 70.4026 34.5786Z" fill="url(#paint2_linear_2029_192213)"/>
</g>
<mask id="mask1_2029_192213" style="mask-type:alpha" maskUnits="userSpaceOnUse" x="10" y="11" width="60" height="59">
<path id="Vector 580" d="M69.8797 23.6267C67.6719 50.6091 62.0028 61.7224 41.3564 69.473C40.6299 69.7458 39.8104 69.746 39.0839 69.4733C18.3556 61.692 12.7233 50.5216 10.534 23.3066C10.4096 21.7599 11.509 20.3882 13.0399 20.1347C25.486 18.0742 32.0493 16.0944 38.0384 11.7951C39.3379 10.8622 41.1017 10.8621 42.4012 11.795C48.3402 16.0584 54.8438 18.0408 67.0883 20.083C68.7951 20.3676 70.0208 21.9021 69.8797 23.6267Z" fill="var(--fill-0, white)"/>
</mask>
<g mask="url(#mask1_2029_192213)">
</g>
</g>
<path id="Vector 580 (Stroke)" d="M37.0664 10.4411C38.9468 9.09125 41.4926 9.09122 43.373 10.4411C48.9871 14.4712 55.1713 16.4059 67.3623 18.4391C69.9019 18.8627 71.7544 21.1524 71.541 23.7624C70.4337 37.2946 68.4459 47.1502 63.9619 54.6198C59.4276 62.1733 52.4739 67.0803 41.9424 71.0339C40.8386 71.4482 39.6025 71.4485 38.498 71.0339C27.9242 67.0645 20.9576 62.1342 16.4248 54.5309C11.9435 47.0139 9.97081 37.0863 8.87305 23.4401C8.67739 21.0073 10.4046 18.8822 12.7676 18.4909C25.164 16.4385 31.4047 14.5054 37.0664 10.4411ZM41.4297 13.1491C40.7111 12.6333 39.7294 12.6333 39.0107 13.1491C32.6944 17.6833 25.808 19.7102 13.3125 21.779C12.614 21.8946 12.1424 22.5122 12.1953 23.1725C13.2868 36.741 15.2241 46.0067 19.2881 52.8239C23.3009 59.5549 29.5155 64.1009 39.6699 67.9128C40.0183 68.0435 40.4214 68.0438 40.7705 67.9128C50.8853 64.1157 57.0897 59.5904 61.1035 52.904C65.1676 46.1337 67.1182 36.9409 68.2188 23.4909C68.2874 22.6519 67.6882 21.8731 66.8145 21.7272C54.5167 19.6762 47.6934 17.6455 41.4297 13.1491Z" fill="url(#paint3_linear_2029_192213)"/>
</g>
<defs>
<linearGradient id="paint0_linear_2029_192213" x1="70.416" y1="19.119" x2="42.4421" y2="71.6582" gradientUnits="userSpaceOnUse">
<stop stop-color="#126F38"/>
<stop offset="1" stop-color="#1F4488"/>
</linearGradient>
<linearGradient id="paint1_linear_2029_192213" x1="71.0714" y1="24.7965" x2="52.3097" y2="79.2217" gradientUnits="userSpaceOnUse">
<stop stop-color="#126F38"/>
<stop offset="1" stop-color="#1F4488"/>
</linearGradient>
<linearGradient id="paint2_linear_2029_192213" x1="70.2441" y1="33.4648" x2="50.3521" y2="83.1425" gradientUnits="userSpaceOnUse">
<stop stop-color="#126F38"/>
<stop offset="1" stop-color="#1F4488"/>
</linearGradient>
<linearGradient id="paint3_linear_2029_192213" x1="71.5577" y1="9.4287" x2="9.64663" y2="72.1235" gradientUnits="userSpaceOnUse">
<stop stop-color="#126F38"/>
<stop offset="1" stop-color="#1F4488"/>
</linearGradient>
</defs>
</svg>
