<svg preserveAspectRatio="none" width="100%" height="100%" overflow="visible" style="display: block;" viewBox="0 0 56 56" fill="none" xmlns="http://www.w3.org/2000/svg">
<g id="fi_733547">
<g clip-path="url(#clip0_2029_192139)">
<path id="Vector" d="M49 0H7C3.1395 0 0 3.1395 0 7V49C0 52.8605 3.1395 56 7 56H49C52.8605 56 56 52.8605 56 49V7C56 3.1395 52.8605 0 49 0Z" fill="var(--fill-0, #1877F2)"/>
<path id="Vector_2" d="M47.25 28H38.5V21C38.5 19.068 40.068 19.25 42 19.25H45.5V10.5H38.5C32.7005 10.5 28 15.2005 28 21V28H21V36.75H28V56H38.5V36.75H43.75L47.25 28Z" fill="var(--fill-0, white)"/>
</g>
</g>
<defs>
<clipPath id="clip0_2029_192139">
<rect width="56" height="56" rx="16" fill="white"/>
</clipPath>
</defs>
</svg>
