<svg preserveAspectRatio="none" width="100%" height="100%" overflow="visible" style="display: block;" viewBox="0 0 56 56" fill="none" xmlns="http://www.w3.org/2000/svg">
<g id="line-official 1">
<g clip-path="url(#clip0_2029_192177)">
<path id="Vector" d="M43.8666 56H12.1334C5.43244 56 0 50.5676 0 43.8666V12.1334C0 5.43244 5.43244 0 12.1334 0H43.8668C50.5676 0 56 5.43244 56 12.1334V43.8668C56 50.5676 50.5676 56 43.8666 56Z" fill="var(--fill-0, #22BA4F)"/>
<path id="Vector_2" d="M48.2983 25.5377C48.2983 16.4143 39.1523 8.9915 27.9092 8.9915C16.6655 8.9915 7.52063 16.4143 7.52063 25.5377C7.52063 33.7168 14.7739 40.5667 24.5722 41.8617C25.2363 42.005 26.1398 42.2999 26.3681 42.8673C26.5738 43.3825 26.5024 44.1903 26.4337 44.7114L26.1428 46.457C26.0538 46.9722 25.7327 48.473 27.9088 47.556C30.0849 46.639 39.6513 40.642 43.9285 35.7182H43.9276C46.8825 32.478 48.2983 29.1896 48.2983 25.5382" fill="var(--fill-0, white)"/>
<g id="Group">
<path id="Vector_3" d="M23.7665 21.1312H22.3359C22.1165 21.1312 21.9389 21.3091 21.9389 21.5278V30.4117C21.9389 30.63 22.1167 30.8055 22.3359 30.8055H23.7665C23.9859 30.8055 24.1636 30.6305 24.1636 30.4117V21.5257C24.1636 21.3069 23.9857 21.1291 23.7665 21.1291M33.6103 21.1312H32.1781C31.9583 21.1312 31.7811 21.3091 31.7811 21.5278V26.8058L27.7095 21.3076C27.7001 21.2936 27.6894 21.28 27.6789 21.2675L27.6767 21.2647L27.6454 21.2334L27.624 21.2159C27.6207 21.2131 27.6174 21.2102 27.6137 21.208L27.5931 21.194C27.5894 21.1912 27.5853 21.1897 27.5811 21.187L27.5601 21.175L27.5474 21.1689L27.5244 21.159L27.5117 21.1547C27.5039 21.1515 27.4959 21.1488 27.4877 21.1468L27.4737 21.1431L27.4514 21.1387C27.4457 21.1374 27.4398 21.1365 27.4345 21.1365C27.4275 21.1352 27.4205 21.1343 27.4135 21.1337L27.393 21.1323C27.3879 21.1323 27.3836 21.1319 27.379 21.1319H25.949C25.7296 21.1319 25.552 21.3098 25.552 21.5285V30.4124C25.552 30.6307 25.7298 30.8061 25.949 30.8061H27.379C27.5988 30.8061 27.7767 30.6311 27.7767 30.4124V25.1357L31.8526 30.641C31.8803 30.6794 31.9146 30.7126 31.9539 30.739C31.9548 30.7398 31.9561 30.7412 31.9576 30.7422L31.9823 30.7567L31.9933 30.7633C31.9995 30.7665 32.0058 30.7695 32.0123 30.7722L32.0313 30.7805L32.0429 30.7849L32.0705 30.7932C32.0718 30.7937 32.0742 30.7941 32.0762 30.7945C32.1094 30.8034 32.1436 30.8079 32.1779 30.8077H33.6079C33.8273 30.8077 34.0049 30.6327 34.0049 30.4139V21.5254C34.0049 21.3067 33.8271 21.1288 33.6079 21.1288" fill="var(--fill-0, #22BA4F)"/>
<path id="Vector_4" d="M20.319 28.5812H16.4329V21.5257C16.4329 21.3062 16.2551 21.1286 16.0363 21.1286H14.6057C14.3863 21.1286 14.2087 21.3065 14.2087 21.5257V30.4069C14.2086 30.5093 14.2485 30.6077 14.3198 30.6812C14.3211 30.6836 14.3229 30.6857 14.3251 30.6873C14.3272 30.6891 14.3294 30.6911 14.3312 30.693C14.4048 30.7639 14.5029 30.8035 14.6051 30.8037H20.3188C20.5382 30.8037 20.7154 30.6254 20.7154 30.4067V28.9761C20.7154 28.7567 20.5404 28.579 20.3188 28.579M41.5078 23.3516C41.7272 23.3516 41.9044 23.1737 41.9044 22.9545V21.5239C41.9044 21.3045 41.7294 21.1269 41.5078 21.1269H35.7941C35.6912 21.1268 35.5923 21.167 35.5187 21.2389C35.5173 21.2402 35.5154 21.2417 35.5143 21.2432C35.5132 21.2448 35.5099 21.2476 35.5082 21.2502C35.4425 21.3211 35.3981 21.4174 35.3981 21.5237V30.4078C35.3981 30.5141 35.4406 30.6108 35.5093 30.6821L35.5143 30.6878L35.52 30.693C35.5913 30.7617 35.688 30.8042 35.7943 30.8042H41.508C41.7274 30.8042 41.9046 30.6263 41.9046 30.4076V28.9769C41.9046 28.7575 41.7296 28.5799 41.508 28.5799H37.625V27.0782H41.5104C41.5626 27.0783 41.6142 27.0681 41.6624 27.0481C41.7106 27.0282 41.7544 26.999 41.7912 26.9621C41.8281 26.9252 41.8573 26.8814 41.8771 26.8332C41.897 26.785 41.9072 26.7333 41.907 26.6812V25.2512C41.907 25.0318 41.732 24.8535 41.5104 24.8535H37.625V23.3522H41.5104L41.5078 23.3516Z" fill="var(--fill-0, #22BA4F)"/>
</g>
</g>
</g>
<defs>
<clipPath id="clip0_2029_192177">
<rect width="56" height="56" rx="16" fill="white"/>
</clipPath>
</defs>
</svg>
