<svg preserveAspectRatio="none" width="100%" height="100%" overflow="visible" style="display: block;" viewBox="0 0 80 80" fill="none" xmlns="http://www.w3.org/2000/svg">
<g id="Frame 11090">
<path id="Union" d="M66.666 6.66602C69.4273 6.66602 71.6658 8.90474 71.666 11.666V53.333H71.667V65C71.6668 67.7612 69.4282 69.9998 66.667 70H41.666V71.667C41.666 72.5875 40.9195 73.334 39.999 73.334C39.0785 73.334 38.332 72.5875 38.332 71.667V66.9971C38.332 66.6678 38.3651 66.3394 38.4297 66.0166L41.6338 49.9971C41.6553 49.8895 41.666 49.7796 41.666 49.6699V33.333C41.6658 32.4127 40.9194 31.667 39.999 31.667H38.332V43.334C38.3319 44.2542 37.5862 44.9998 36.666 45C35.7456 45 34.9992 44.2543 34.999 43.334V25C34.9988 24.0797 34.2524 23.334 33.332 23.334H31.666V41.667C31.666 42.5875 30.9195 43.334 29.999 43.334C29.0785 43.334 28.332 42.5875 28.332 41.667V20C28.3319 19.0798 27.5862 18.3342 26.666 18.334C25.7457 18.334 24.9992 19.0797 24.999 20V40C24.999 40.9205 24.2525 41.667 23.332 41.667C22.4117 41.6668 21.666 40.9204 21.666 40V23.334H19.999C19.0787 23.334 18.3322 24.0797 18.332 25V53.334C18.3319 54.2542 17.5862 54.9998 16.666 55C15.7457 55 14.9992 54.2543 14.999 53.334V41.667H13.332C12.4117 41.6672 11.666 42.4136 11.666 43.334V55.6582C11.6661 55.987 11.763 56.3084 11.9453 56.582L17.4922 64.9023C18.0397 65.7236 18.3319 66.6888 18.332 67.6758V71.667C18.332 72.5874 17.5863 73.3338 16.666 73.334C15.7455 73.334 14.999 72.5875 14.999 71.667V67.6758C14.9989 67.3469 14.9012 67.0256 14.7188 66.752L9.17188 58.4316C8.6244 57.6104 8.33212 56.6452 8.33203 55.6582V43.334C8.33203 40.5727 10.5708 38.3342 13.332 38.334H14.999V25C14.9991 23.5192 15.6431 22.189 16.666 21.2734V18.333C16.666 11.8897 21.8897 6.66602 28.333 6.66602H66.666ZM68.333 63.0469C67.8115 63.2313 67.2507 63.333 66.666 63.333H42.3652L41.6992 66.666H66.667C67.5872 66.6658 68.3328 65.9202 68.333 65V63.0469ZM31.666 20H33.332C36.0933 20 38.3319 22.2387 38.332 25V28.333H39.999C42.7603 28.333 44.9988 30.5717 44.999 33.333V49.6699C44.999 49.999 44.9669 50.3277 44.9023 50.6504L43.0322 60H66.666C67.5865 60 68.333 59.2535 68.333 58.333V11.666C68.3328 10.7457 67.5864 10 66.666 10H63.334V26.667C63.3338 27.3842 62.8747 28.0212 62.1943 28.248C61.5139 28.4749 60.7645 28.2406 60.334 27.667L56.667 22.7773L53 27.667C52.5695 28.2406 51.8201 28.4749 51.1396 28.248C50.4593 28.0212 50.0001 27.3842 50 26.667V10H31.666V20ZM53.334 21.667L55.334 19C55.6487 18.5804 56.1425 18.333 56.667 18.333C57.1915 18.333 57.6852 18.5804 58 19L60 21.667V10H53.334V21.667ZM28.333 10C23.7306 10 20 13.7306 20 18.333V20H21.666C21.6662 17.2387 23.9047 15 26.666 15C27.2506 15 27.8116 15.1007 28.333 15.2852V10Z" fill="url(#paint0_linear_2029_192194)"/>
</g>
<defs>
<linearGradient id="paint0_linear_2029_192194" x1="71.667" y1="6.66602" x2="5.08662" y2="69.9178" gradientUnits="userSpaceOnUse">
<stop stop-color="#126F38"/>
<stop offset="1" stop-color="#1F4488"/>
</linearGradient>
</defs>
</svg>
