<svg preserveAspectRatio="none" width="100%" height="100%" overflow="visible" style="display: block;" viewBox="0 0 80 80" fill="none" xmlns="http://www.w3.org/2000/svg">
<g id="Frame 11093">
<path id="Union" d="M68.334 6.66602C71.0951 6.66619 73.3338 8.90485 73.334 11.666V43.333C73.334 46.0943 71.0953 48.3328 68.334 48.333H58.334V70H65C65.9204 70 66.6668 70.7457 66.667 71.666C66.667 72.5865 65.9205 73.333 65 73.333H48.334C47.4135 73.333 46.667 72.5865 46.667 71.666C46.6672 70.7457 47.4136 70 48.334 70H55V48.333H45C42.2387 48.3328 40 46.0943 40 43.333V41.667H35V73.334H15V56.667H11.666C8.90474 56.6668 6.66602 54.4283 6.66602 51.667V38.334C6.66602 33.7316 10.3976 30 15 30H40V11.666C40.0002 8.90485 42.2388 6.66619 45 6.66602H68.334ZM15 33.334C12.2386 33.334 10 35.5726 10 38.334V51.667C10 52.5874 10.7457 53.3338 11.666 53.334H15V38.334H18.333V70H23.333V53.334C23.333 52.4135 24.0795 51.667 25 51.667C25.9203 51.6672 26.666 52.4136 26.666 53.334V70H31.666V38.334H41.6484C41.6546 38.3339 41.6608 38.333 41.667 38.333C41.6732 38.333 41.6794 38.3339 41.6855 38.334H45C45.9203 38.3338 46.666 37.5874 46.666 36.667V35C46.6658 34.0798 45.9202 33.3342 45 33.334H15ZM45 10C44.0798 10.0002 43.3342 10.7458 43.334 11.666V30H45C45.7714 30 46.5019 30.1752 47.1543 30.4873L62.1543 15.4883C62.8052 14.8374 63.8608 14.8374 64.5117 15.4883C65.1625 16.1392 65.1625 17.1949 64.5117 17.8457L49.5117 32.8447C49.8241 33.4975 50 34.2281 50 35V36.667C50 39.4283 47.7613 41.6668 45 41.667H43.334V43.333C43.334 44.2534 44.0797 44.9998 45 45H68.334C69.2543 44.9998 70 44.2534 70 43.333V11.666C69.9998 10.7458 69.2542 10.0002 68.334 10H45ZM25 11.666C29.6022 11.6662 33.333 15.3977 33.333 20C33.3328 24.6021 29.6021 28.3328 25 28.333C20.3977 28.333 16.6662 24.6022 16.666 20C16.666 15.3976 20.3976 11.666 25 11.666ZM25 15C22.2386 15 20 17.2386 20 20C20.0002 22.7613 22.2387 25 25 25C27.7612 24.9998 29.9998 22.7612 30 20C30 17.2387 27.7613 15.0002 25 15Z" fill="url(#paint0_linear_2029_192232)"/>
</g>
<defs>
<linearGradient id="paint0_linear_2029_192232" x1="73.334" y1="6.66602" x2="6.66602" y2="73.334" gradientUnits="userSpaceOnUse">
<stop stop-color="#126F38"/>
<stop offset="1" stop-color="#1F4488"/>
</linearGradient>
</defs>
</svg>
