<svg preserveAspectRatio="none" width="100%" height="100%" overflow="visible" style="display: block;" viewBox="0 0 80 80" fill="none" xmlns="http://www.w3.org/2000/svg">
<g id="Frame 11094">
<path id="Union" d="M48.0347 10.3245C49.9873 8.3719 53.1534 8.3719 55.106 10.3245L71.605 26.8235C73.5571 28.7761 73.5571 31.9413 71.605 33.8939L66.4058 39.0931L70.357 43.0452C72.3092 44.9978 72.3093 48.164 70.357 50.1165L67.4976 52.9769C68.4979 54.8658 68.2041 57.2615 66.6138 58.8519L65.0884 60.3763C63.4978 61.9667 61.1015 62.2618 59.2124 61.261L56.354 64.1194C54.7633 65.7102 52.3672 66.0043 50.4781 65.0032L47.6177 67.8626C45.6651 69.815 42.4999 69.8152 40.5474 67.8626L39.0933 66.4085L36.3911 69.1116C34.4386 71.0639 31.2724 71.0639 29.3198 69.1116L27.7945 67.5862C27.3456 67.1374 27.0008 66.6241 26.7583 66.0765C24.8288 67.2793 22.2583 67.044 20.5816 65.3675L19.0562 63.8421C17.7826 62.5684 17.34 60.7785 17.7281 59.1458C16.9459 58.9187 16.2079 58.4977 15.5913 57.8812L14.0659 56.3558C12.3898 54.6795 12.1531 52.1093 13.355 50.18C12.8083 49.9376 12.2953 49.5939 11.8472 49.1458L10.3218 47.6204C8.36957 45.6679 8.36976 42.5027 10.3218 40.5501L11.6714 39.1995L6.88528 32.3567C5.49489 30.3692 5.73162 27.6706 7.4468 25.9554L22.2544 11.1468C23.9397 9.46176 26.581 9.20088 28.564 10.5228L32.6402 13.2415L33.1939 12.6868C34.1315 11.7494 35.4031 11.222 36.729 11.222L46.4458 11.223C46.8877 11.2229 47.312 11.0471 47.6245 10.7347L48.0347 10.3245ZM36.5298 58.8509C35.879 58.2003 34.8232 58.2003 34.1724 58.8509L30.1509 62.8724C29.5006 63.5232 29.5014 64.5781 30.1519 65.2288L31.6773 66.7542C32.3281 67.4048 33.3829 67.4048 34.0337 66.7542L37.8872 62.9007C37.8962 62.8913 37.9044 62.8806 37.9136 62.8714C37.9237 62.8613 37.9345 62.8519 37.9448 62.8421L38.0542 62.7337C38.705 62.0829 38.7058 61.0272 38.0552 60.3763L36.5298 58.8509ZM26.7154 13.2962C26.0544 12.8556 25.1736 12.9427 24.6118 13.5042L9.80422 28.3128C9.23252 28.8845 9.15235 29.7841 9.61575 30.4466L14.065 36.806L14.3433 36.5286C16.2959 34.5763 19.461 34.5763 21.4136 36.5286L22.939 38.054C24.2126 39.3278 24.6542 41.1175 24.2661 42.7503C25.0494 42.9772 25.7884 43.3986 26.4058 44.0159L27.9312 45.5413C28.8364 46.4466 29.3214 47.6131 29.3872 48.7982C30.5724 48.864 31.7387 49.3498 32.6441 50.2552L34.1695 51.7806C35.0746 52.686 35.5588 53.8522 35.6245 55.0374C36.8114 55.102 37.9795 55.5878 38.8863 56.4944L40.4116 58.0198C42.0023 59.6107 42.2967 62.0066 41.2954 63.8958L42.9048 65.5052C43.5556 66.156 44.6104 66.1568 45.2613 65.5062L47.9654 62.8021L40.4087 55.2454C39.7583 54.5946 39.7581 53.5397 40.4087 52.889C41.0595 52.2383 42.1153 52.2384 42.7661 52.889L51.6402 61.763C52.2911 62.4133 53.3459 62.4127 53.9966 61.762L56.6997 59.0589L46.648 49.0062C45.9975 48.3553 45.9982 47.3004 46.6489 46.6497C47.2997 45.9995 48.3537 45.9994 49.0044 46.6497L60.3745 58.0198C61.0254 58.6701 62.0803 58.6694 62.731 58.0189L64.2554 56.4944C64.9062 55.8436 64.907 54.7879 64.2564 54.137L52.8872 42.7679C52.2366 42.117 52.2365 41.0613 52.8872 40.4105C53.538 39.7599 54.5928 39.7601 55.2437 40.4105L65.2954 50.4632L67.9995 47.7591C68.6501 47.1083 68.65 46.0535 67.9995 45.4026L47.6245 25.0267C47.3121 24.7143 46.8876 24.5385 46.4458 24.5384H36.729C36.287 24.5384 35.8629 24.7141 35.5503 25.0267L28.9009 31.6751C26.9483 33.6277 23.7832 33.6277 21.8306 31.6751L21.5532 31.3987C19.6006 29.4461 19.6006 26.2801 21.5532 24.3274L30.2359 15.6448L26.7154 13.2962ZM30.2866 52.6116C29.642 51.9673 28.6009 51.961 27.9488 52.5931C27.9426 52.5993 27.9374 52.6064 27.9312 52.6126L22.6626 57.8812C22.6425 57.9013 22.6205 57.92 22.6001 57.9398L21.4126 59.1282C20.7623 59.7791 20.7631 60.834 21.4136 61.4847L22.939 63.0101C23.5898 63.6606 24.6446 63.6606 25.2954 63.0101L31.812 56.4935C32.4626 55.8426 32.4626 54.7878 31.812 54.137L30.2866 52.6116ZM24.0493 46.3733C23.3985 45.7225 22.3428 45.7225 21.6919 46.3733L16.4224 51.6419C15.7721 52.2927 15.7729 53.3476 16.4234 53.9983L17.9488 55.5237C18.5965 56.1713 19.6439 56.1741 20.2954 55.5325L25.5796 50.2483C26.224 49.5972 26.223 48.5475 25.5747 47.8987L24.0493 46.3733ZM19.0572 38.8851C18.4063 38.2345 17.3505 38.2345 16.6997 38.8851L12.6782 42.9066C12.0279 43.5574 12.0287 44.6123 12.6792 45.263L14.2046 46.7884C14.8554 47.439 15.9102 47.439 16.5611 46.7884L20.5816 42.7679C21.2324 42.1171 21.2332 41.0613 20.5825 40.4105L19.0572 38.8851ZM52.7486 12.681C52.0977 12.0302 51.042 12.0301 50.3911 12.681L49.981 13.0911C49.0434 14.0286 47.7717 14.5559 46.4458 14.556H36.729C36.287 14.556 35.8629 14.7317 35.5503 15.0442L23.9097 26.6839C23.2588 27.3348 23.2588 28.3914 23.9097 29.0423L24.187 29.3187C24.8379 29.9695 25.8936 29.9695 26.5445 29.3187L33.1939 22.6692C34.1313 21.732 35.4025 21.2056 36.7281 21.2054H46.4458C47.7718 21.2054 49.0443 21.7317 49.982 22.6692L64.0484 36.7366L69.2476 31.5374C69.8985 30.8865 69.8985 29.8309 69.2476 29.18L52.7486 12.681Z" fill="url(#paint0_linear_2029_192253)"/>
</g>
<defs>
<linearGradient id="paint0_linear_2029_192253" x1="73.069" y1="8.86006" x2="11.5675" y2="75.7139" gradientUnits="userSpaceOnUse">
<stop stop-color="#126F38"/>
<stop offset="1" stop-color="#1F4488"/>
</linearGradient>
</defs>
</svg>
